HIERARCHY
ROOT SpineBase
{
  OFFSET 0.000000 0.000000 0.000000
  CHANNELS 6 Xposition Yposition Zposition Zrotation Xrotation Yrotation
  JOINT SpineMid
  {
    OFFSET 0.000000 29.351288 0.000000
    CHANNELS 3 Zrotation Xrotation Yrotation
    JOINT SpineShoulder
    {
      OFFSET -0.061803 21.784024 -0.626629
      CHANNELS 3 Zrotation Xrotation Yrotation
      JOINT Neck
      {
        OFFSET -0.045979 7.207478 -0.503383
        CHANNELS 3 Zrotation Xrotation Yrotation
        JOINT Head
        {
          OFFSET 2.842286 13.649942 -2.023556
          CHANNELS 3 Zrotation Xrotation Yrotation
          End Site
          {
            OFFSET 0 0 0
          }
        }
      }
      JOINT ShoulderLeft
      {
        OFFSET -15.139793 -3.265790 -6.120837
        CHANNELS 3 Zrotation Xrotation Yrotation
        JOINT ElbowLeft
        {
          OFFSET -2.093124 -21.703869 -3.774303
          CHANNELS 3 Zrotation Xrotation Yrotation
          JOINT WristLeft
          {
            OFFSET 10.385056 -17.205858 -6.712183
            CHANNELS 3 Zrotation Xrotation Yrotation
            JOINT HandLeft
            {
              OFFSET 5.810426 -2.598713 1.187186
              CHANNELS 3 Zrotation Xrotation Yrotation
              JOINT HandTipLeft
              {
                OFFSET 2.873309 -2.791628 -0.570409
                CHANNELS 3 Zrotation Xrotation Yrotation
                End Site
                {
                  OFFSET 0 0 0
                }
              }
              JOINT ThumbLeft
              {
                OFFSET -2.265700 -0.564317 0.509787
                CHANNELS 3 Zrotation Xrotation Yrotation
                End Site
                {
                  OFFSET 0 0 0
                }
              }
            }
          }
        }
      }
      JOINT ShoulderRight
      {
        OFFSET 16.485647 -4.464207 2.981666
        CHANNELS 3 Zrotation Xrotation Yrotation
        JOINT ElbowRight
        {
          OFFSET 1.410348 -20.906014 -1.344694
          CHANNELS 3 Zrotation Xrotation Yrotation
          JOINT WristRight
          {
            OFFSET -10.161986 -15.717820 -16.122368
            CHANNELS 3 Zrotation Xrotation Yrotation
            JOINT HandRight
            {
              OFFSET -4.968152 -1.841148 -1.526958
              CHANNELS 3 Zrotation Xrotation Yrotation
              JOINT HandTipRight
              {
                OFFSET -2.804053 -1.668722 -1.101048
                CHANNELS 3 Zrotation Xrotation Yrotation
                End Site
                {
                  OFFSET 0 0 0
                }
              }
              JOINT ThumbRight
              {
                OFFSET -2.561708 2.711557 -1.514850
                CHANNELS 3 Zrotation Xrotation Yrotation
                End Site
                {
                  OFFSET 0 0 0
                }
              }
            }
          }
        }
      }
    }
  }
  JOINT HipLeft
  {
    OFFSET -6.809680 1.311260 -4.835329
    CHANNELS 3 Zrotation Xrotation Yrotation
    JOINT KneeLeft
    {
      OFFSET -7.468374 -29.660308 -3.279481
      CHANNELS 3 Zrotation Xrotation Yrotation
      JOINT AnkleLeft
      {
        OFFSET -7.337310 -39.605890 3.362073
        CHANNELS 3 Zrotation Xrotation Yrotation
        JOINT FootLeft
        {
          OFFSET 0.611396 0.419424 -10.718865
          CHANNELS 3 Zrotation Xrotation Yrotation
          End Site
          {
            OFFSET 0 0 0
          }
        }
      }
    }
  }
  JOINT HipRight
  {
    OFFSET 6.111259 -0.153052 -1.813431
    CHANNELS 3 Zrotation Xrotation Yrotation
    JOINT KneeRight
    {
      OFFSET -1.137967 -28.370615 6.538889
      CHANNELS 3 Zrotation Xrotation Yrotation
      JOINT AnkleRight
      {
        OFFSET -5.140445 -38.932586 8.811881
        CHANNELS 3 Zrotation Xrotation Yrotation
        JOINT FootRight
        {
          OFFSET 3.913343 -0.061982 -9.403942
          CHANNELS 3 Zrotation Xrotation Yrotation
          End Site
          {
            OFFSET 0 0 0
          }
        }
      }
    }
  }
}
MOTION
Frames: 16
Frame Time: 0.033333
40.718351 70.718380 387.370403 -0.000000 0.000000 -13.163506 -0.000000 0.000000 13.163506 -0.000000 0.000000 0.000000 -0.000000 0.000000 0.000000 0.000000 0.000000 0.000000 -0.000000 0.000000 0.000000 -0.000000 0.000000 0.000000 -0.000000 0.000000 0.000000 -0.000000 0.000000 0.000000 0.000000 0.000000 0.000000 0.000000 0.000000 0.000000 -0.000000 0.000000 0.000000 -0.000000 0.000000 0.000000 -0.000000 0.000000 0.000000 -0.000000 0.000000 0.000000 0.000000 0.000000 0.000000 0.000000 0.000000 0.000000 -0.000000 0.000000 13.163506 -0.000000 0.000000 0.000000 -0.000000 0.000000 0.000000 0.000000 0.000000 0.000000 -0.000000 0.000000 13.163506 -0.000000 0.000000 0.000000 -0.000000 0.000000 0.000000 0.000000 0.000000 0.000000
40.935906 70.744733 387.471139 -0.090485 0.117916 -12.533603 0.113918 -0.095470 12.533791 -0.000000 0.000000 0.000000 -0.000000 0.000000 0.000000 0.000000 0.000000 0.000000 -0.000000 0.000000 0.000000 -0.000000 0.000000 0.000000 -3.665915 1.220851 1.184006 6.293987 0.029388 -0.220139 0.000000 0.000000 0.000000 0.000000 0.000000 0.000000 -0.000000 0.000000 0.000000 -0.000000 0.000000 0.000000 2.662511 0.367926 -3.413960 7.506065 0.023926 -4.338247 0.000000 0.000000 0.000000 0.000000 0.000000 0.000000 0.113918 -0.095470 12.533791 -0.000000 0.000000 0.000000 0.061484 1.359535 -0.590972 0.000000 0.000000 0.000000 0.113918 -0.095470 12.533791 -0.000000 0.000000 0.000000 0.351670 0.824374 -0.572779 0.000000 0.000000 0.000000
41.123992 70.756318 387.574914 -0.200764 0.190437 -12.094654 0.236210 -0.144143 12.095285 -0.000000 0.000000 0.000000 1.153271 0.235660 0.119819 0.000000 0.000000 0.000000 -0.000000 0.000000 0.000000 -1.007789 -0.389582 0.155621 -5.714035 2.566908 2.080134 11.038931 -0.414003 -0.563259 0.000000 0.000000 0.000000 0.000000 0.000000 0.000000 -0.000000 0.000000 0.000000 0.799471 0.301607 -1.018981 3.456579 0.372914 -4.725228 12.185009 -0.147279 -6.772178 0.000000 0.000000 0.000000 0.000000 0.000000 0.000000 0.236210 -0.144143 12.095285 -0.000000 0.000000 0.000000 0.122865 2.473512 -1.049684 0.000000 0.000000 0.000000 0.236210 -0.144143 12.095285 -0.000000 0.000000 0.000000 0.683118 1.581910 -1.086323 0.000000 0.000000 0.000000
41.282606 70.753136 387.681728 -0.330817 0.217293 -11.844964 0.368377 -0.144758 11.846056 -0.000000 0.000000 0.000000 1.433753 0.262822 0.155001 0.000000 0.000000 0.000000 -0.000000 0.000000 0.000000 -1.244517 -0.587196 0.125795 -7.956081 3.469659 2.970338 14.496450 -1.147087 -1.006051 0.000000 0.000000 0.000000 0.000000 0.000000 0.000000 -0.000000 0.000000 0.000000 1.091242 0.433521 -1.406907 4.037102 0.508405 -5.984673 15.126243 -0.308653 -8.019828 0.000000 0.000000 0.000000 0.000000 0.000000 0.000000 0.368377 -0.144758 11.846056 -0.434895 0.923101 -0.204426 0.603161 2.422656 -1.161745 0.000000 0.000000 0.000000 0.368377 -0.144758 11.846056 -0.000000 0.000000 0.000000 0.992270 2.273408 -1.539623 0.000000 0.000000 0.000000
41.411751 70.735186 387.791582 -0.480585 0.198303 -11.782961 0.510953 -0.095981 11.784221 -0.000000 0.000000 0.000000 1.520007 0.229758 0.174995 0.000000 0.000000 0.000000 -0.730156 0.636025 0.069580 -0.575741 -1.421572 -0.050517 -9.824305 4.157093 3.733389 16.823399 -2.084350 -1.572326 0.000000 0.000000 0.000000 0.000000 0.000000 0.000000 -0.879392 -0.583083 0.012765 2.169880 1.131278 -1.723058 4.168565 0.678147 -6.878041 17.008788 -0.426610 -8.523425 0.000000 0.000000 0.000000 0.000000 0.000000 0.000000 0.510953 -0.095981 11.784221 -0.502188 1.050861 -0.232702 0.709617 2.923828 -1.324416 0.000000 0.000000 0.000000 0.510953 -0.095981 11.784221 -0.811310 0.217491 -0.210702 2.078340 2.690090 -1.713065 0.000000 0.000000 0.000000
41.511425 70.702469 387.904476 -0.649966 0.133373 -11.907223 0.663498 0.003608 11.907959 -0.819407 -0.098403 -0.058560 2.231810 0.236904 0.234545 0.000000 0.000000 0.000000 -0.340853 0.704799 0.208140 -0.031330 -1.594013 -0.293941 -11.342873 4.653131 4.357599 18.094965 -3.203727 -2.312417 0.000000 0.000000 0.000000 0.000000 0.000000 0.000000 -0.336744 -0.807335 0.063349 2.541056 1.549938 -1.891991 3.953882 0.905601 -7.544530 18.190283 -0.510911 -8.501103 0.000000 0.000000 0.000000 0.000000 0.000000 0.000000 0.663498 0.003608 11.907959 -0.530981 1.088612 -0.241697 0.763815 3.274675 -1.376229 0.000000 0.000000 0.000000 0.663498 0.003608 11.907959 -0.999833 0.228741 -0.254332 2.521464 3.244667 -1.997422 0.000000 0.000000 0.000000
41.608719 70.673415 387.997291 -0.781863 0.046371 -12.259297 -0.143017 -0.181567 12.230405 -0.030843 -0.081211 -0.043144 2.102979 0.096919 0.249503 0.000000 0.000000 0.000000 -0.667032 0.708489 0.318489 0.359217 -1.699747 -0.459793 -11.215378 5.118660 5.435367 16.735789 -6.047159 -5.244213 0.000000 0.000000 0.000000 0.000000 0.000000 0.000000 -0.524192 -1.164540 0.062570 2.610531 2.066891 -1.644222 2.892302 1.266619 -7.651035 17.834018 -0.672988 -7.179591 0.000000 0.000000 0.000000 0.000000 0.000000 0.000000 0.773881 0.120704 12.258798 -0.536753 1.153022 -0.253773 0.776887 3.326763 -1.265676 0.000000 0.000000 0.000000 0.773881 0.120704 12.258798 -1.193495 0.269261 -0.302633 2.826239 3.462909 -2.015426 0.000000 0.000000 0.000000
41.670799 70.631281 388.097171 -0.937703 -0.071734 -12.685534 -0.241695 -0.198249 12.647944 -0.093833 -0.143294 -0.059671 1.310380 0.357444 0.089729 0.000000 0.000000 0.000000 -0.656467 0.829857 0.405425 0.990021 -1.617215 -0.616134 -11.513519 4.759570 4.583223 13.909244 -7.934005 -6.766193 0.000000 0.000000 0.000000 0.000000 0.000000 0.000000 -0.638710 -1.481574 0.072274 3.124826 2.345167 -1.610248 1.786795 2.195649 -8.692667 17.918599 -1.084687 -4.645274 0.000000 0.000000 0.000000 0.000000 0.000000 0.000000 0.899069 0.275884 12.682782 -0.489543 0.990386 -0.220794 0.721348 3.334203 -0.922166 0.000000 0.000000 0.000000 0.375578 1.210861 12.577778 -1.049528 -0.786570 -0.245551 3.121642 3.831979 -1.729182 0.000000 0.000000 0.000000
41.792666 70.660604 388.150122 -1.049122 -0.081762 -13.243953 -0.429045 -0.321450 13.195234 -0.182868 -0.204424 -0.080991 1.722368 0.504348 0.115963 0.000000 0.000000 0.000000 -0.884913 0.928149 0.559219 2.297754 -2.014971 -1.245005 -12.680115 5.204169 5.478562 9.944010 -10.030344 -9.018319 0.000000 0.000000 0.000000 0.000000 0.000000 0.000000 -0.462014 -1.939411 0.064734 3.572521 2.388066 -1.477744 -0.251836 3.935047 -10.128087 19.753424 -1.840194 -1.881124 0.000000 0.000000 0.000000 0.000000 0.000000 0.000000 1.002501 0.319913 13.240406 -0.415666 0.684922 -0.159663 0.627898 3.240272 -0.341489 0.000000 0.000000 0.000000 0.455796 1.688265 13.140842 -1.256745 -1.251793 -0.284302 3.452832 4.331976 -1.942634 0.000000 0.000000 0.000000
41.702070 70.513981 388.324852 -1.531019 -0.377992 -14.235450 -0.509170 -0.404101 14.164075 -0.291331 -0.350735 -0.117824 2.412735 1.002176 0.153896 0.000000 0.000000 0.000000 -1.447088 1.061902 0.885557 5.209496 -2.129132 -2.372259 -15.522838 5.036143 5.014498 10.856265 -9.957398 -7.984965 0.000000 0.000000 0.000000 0.000000 0.000000 0.000000 0.062021 -2.165287 0.068263 2.989613 4.087293 -1.281768 0.643468 2.310913 -8.627229 17.869789 -1.512423 -3.183039 0.000000 0.000000 0.000000 0.000000 0.000000 0.000000 0.459580 1.809837 13.995482 0.645981 -1.260524 0.253758 0.203895 3.589546 -0.151727 0.000000 0.000000 0.000000 1.156888 3.016778 14.214754 -2.005117 -2.203696 -0.442896 4.039965 5.347653 -2.263534 0.000000 0.000000 0.000000
41.423693 70.237051 388.585828 -2.210107 -0.975697 -15.370282 -0.451508 -0.555675 15.261932 -0.369630 -0.525338 -0.158679 1.535219 1.331007 0.109204 0.000000 0.000000 0.000000 -1.964516 1.251352 1.273270 8.589163 -1.855867 -3.702449 -19.786028 4.309407 2.945820 12.064545 -10.309361 -6.476053 0.000000 0.000000 0.000000 0.000000 0.000000 0.000000 0.667688 -1.826275 0.089738 1.869490 6.386832 -0.970577 2.592503 -0.958240 -5.113077 14.679591 0.739825 -9.749427 0.000000 0.000000 0.000000 0.000000 0.000000 0.000000 0.293305 3.769223 14.854505 0.952685 -2.572101 0.566392 0.141042 2.468228 0.006562 0.000000 0.000000 0.000000 2.239707 4.976498 15.468730 -3.159223 -3.284018 -0.722186 4.959659 6.971329 -3.026403 0.000000 0.000000 0.000000
41.096056 69.948489 388.933540 -3.114200 -1.648573 -16.592579 -0.238491 -0.807019 16.424086 -0.409118 -0.718961 -0.204507 1.577586 1.853697 0.194680 0.000000 0.000000 0.000000 -2.531550 1.783729 1.717252 12.367531 -1.652438 -5.101930 -25.294793 3.509085 0.648295 12.658038 -12.283302 -6.487533 0.000000 0.000000 0.000000 0.000000 0.000000 0.000000 0.625984 -0.059839 0.282956 1.652686 7.239707 -0.809911 4.640613 -4.449891 -0.172725 11.872203 3.192440 -16.690212 0.000000 0.000000 0.000000 0.000000 0.000000 0.000000 -0.095701 6.241248 15.757336 2.732177 -6.103436 1.537866 -1.188855 1.798475 -0.415225 0.000000 0.000000 0.000000 3.503592 7.507068 16.775331 -4.543803 -4.772517 -1.083629 5.574694 7.866478 -3.691414 0.000000 0.000000 0.000000
40.600457 69.546482 389.307965 -3.871570 -2.989961 -17.722781 -0.225428 -1.069255 17.463614 -0.446215 -0.756575 -0.247099 2.419323 2.737070 0.378889 0.000000 0.000000 0.000000 -3.597372 1.820246 2.391155 16.655298 -0.447403 -6.785226 -29.051944 2.204969 -2.610797 12.223740 -13.454283 -5.770254 0.000000 0.000000 0.000000 0.000000 0.000000 0.000000 0.815555 2.338585 0.516267 2.344039 6.143584 -0.741528 3.524707 -6.140458 6.240287 11.766915 5.554239 -25.017839 0.000000 0.000000 0.000000 0.000000 0.000000 0.000000 -1.202083 9.495163 16.623403 4.012455 -8.995332 2.367211 -1.696765 1.022173 0.222167 0.000000 0.000000 0.000000 4.201709 11.266785 17.892536 -5.892566 -7.265479 -1.436170 5.929392 8.813294 -4.201695 0.000000 0.000000 0.000000
39.755915 68.713313 389.709974 -4.740019 -4.795542 -18.447392 -0.088973 -1.107241 18.058750 -0.334275 -0.729101 -0.277677 2.950560 3.989530 0.505667 0.000000 0.000000 0.000000 -5.386451 1.336742 3.255511 20.727486 1.123870 -8.743907 -31.114837 1.410319 -4.495843 13.536459 -13.714748 -5.084275 0.000000 0.000000 0.000000 0.000000 0.000000 0.000000 2.635438 2.936819 0.282445 0.151052 8.663768 -0.229876 3.268551 -9.312410 12.368793 12.694698 7.527120 -32.567776 0.000000 0.000000 0.000000 0.000000 0.000000 0.000000 -2.537545 13.459033 17.157891 4.694121 -11.322085 3.007475 -1.665128 1.305116 -3.621136 0.000000 0.000000 0.000000 5.389817 15.943639 18.518975 -7.748390 -10.160408 -1.961661 6.632353 11.236796 -3.919868 0.000000 0.000000 0.000000
38.660148 67.566476 390.093808 -5.751102 -6.768183 -18.652340 0.230914 -1.237029 18.069708 -0.159266 -0.751675 -0.313672 3.531213 6.040036 0.541861 0.000000 0.000000 0.000000 -7.341178 0.197187 4.243450 24.587416 3.717599 -10.966706 -32.881889 1.156946 -4.525857 12.045436 -13.296462 -3.905250 0.000000 0.000000 0.000000 0.000000 0.000000 0.000000 4.096801 3.052285 -0.053227 -1.838173 12.650586 0.095532 -0.356260 -12.197113 16.823217 18.288027 8.232140 -41.149373 0.000000 0.000000 0.000000 0.000000 0.000000 0.000000 -3.681608 17.508859 17.295571 4.568297 -12.522732 3.204734 -0.719817 2.180439 -7.628897 0.000000 0.000000 0.000000 7.230314 21.169895 18.397281 -10.178382 -13.626613 -2.696457 7.060908 13.532190 -3.348532 0.000000 0.000000 0.000000
37.453281 66.232513 390.410372 -5.948097 -9.474779 -18.652504 0.309044 -1.151093 17.904332 -0.093157 -0.499207 -0.308313 3.434796 7.430057 0.723174 0.000000 0.000000 0.000000 -9.454890 -1.539471 5.202225 28.206483 7.454017 -13.301105 -29.229798 -1.283016 -8.622265 10.872500 -6.968813 3.976021 0.000000 0.000000 0.000000 0.000000 0.000000 0.000000 5.490416 3.544373 -0.517051 -5.663136 17.775063 1.216540 2.891918 -18.326862 24.298499 17.815402 13.055417 -50.692070 0.000000 0.000000 0.000000 0.000000 0.000000 0.000000 -6.533274 22.054694 17.708160 4.885071 -13.904223 3.400399 0.904286 5.620950 -11.097225 0.000000 0.000000 0.000000 8.561802 26.877281 17.809820 -13.110565 -17.137346 -3.682355 7.609850 16.019796 -2.773335 0.000000 0.000000 0.000000
